# xmcd
#
# Track frame offsets:
#	150
#	14177
#	32175
#	44460
#	58417
#	73902
#	90927
#	105440
#	126465
#	141167
#	155340
#	167365
#	181922
#	196922
#	210565
#	222532
#	238732
#	252015
#
# Disc length: 3543 seconds
#
# Revision: 3
# Processed by: cddbd v1.5.1PL0 Copyright (c) Steve Scherf et al.
# Submitted via: dBpowerAMP V4.0
#
DISCID=0a0dd512
DTITLE=Various Artist - Heart Of The Country '92
DYEAR=1992
DGENRE=Country
TTITLE0=George Strait - Love Without End, Amen
TTITLE1=Vince Gill - Look At Us
TTITLE2=Joe Diffie - New Way [To Light Up An Old Flame]
TTITLE3=Clifford Gregory - Satisfy Me And I'll Satisfy You
TTITLE4=Patty Loveless - Can't Stop Myself From Loving You
TTITLE5=Shenandoah - I Got You
TTITLE6=Paulette Carlson - I'll Start With You
TTITLE7=Joel Feeney and Western Front - Diamonds
TTITLE8=Billy Dean - You Don't Count The Cost
TTITLE9=Paul Overstreet - Richest Man On Earth
TTITLE10=Bill Crosby - Love Will Bring Her Around
TTITLE11=Joan Kennedy - If You Want Love
TTITLE12=Pirates Of The Mississippi - Fighting For You
TTITLE13=Brent Lee and The Outsiders - Would You Love Me
TTITLE14=Trisha Yearwood - That's What I Like About You
TTITLE15=Lee Greenwood - If You Let This Fool Back In
TTITLE16=Tanya Tucker - [Without You] What Do I Do With Me
TTITLE17=Mark Chesnutt - Broken Promise Land
EXTD=
EXTT0=
EXTT1=
EXTT2=
EXTT3=
EXTT4=
EXTT5=
EXTT6=
EXTT7=
EXTT8=
EXTT9=
EXTT10=
EXTT11=
EXTT12=
EXTT13=
EXTT14=
EXTT15=
EXTT16=
EXTT17=
PLAYORDER=
